<svg height="512" viewBox="0 0 64 64" width="512" xmlns="http://www.w3.org/2000/svg"><g id="_11-Partly_Cloudy" data-name="11-Partly Cloudy"><g fill="#ffdc78"><path d="m19 11a1 1 0 0 1 -1-1v-3a1 1 0 0 1 2 0v3a1 1 0 0 1 -1 1z"/><path d="m19 42a1 1 0 0 1 -1-1v-3a1 1 0 0 1 2 0v3a1 1 0 0 1 -1 1z"/><path d="m5 25h-3a1 1 0 0 1 0-2h3a1 1 0 0 1 0 2z"/><path d="m36 25h-3a1 1 0 0 1 0-2h3a1 1 0 0 1 0 2z"/><path d="m9.1 15.1a1 1 0 0 1 -.707-.293l-2.828-2.828a1 1 0 1 1 1.414-1.414l2.829 2.829a1 1 0 0 1 -.708 1.706z"/><path d="m6.272 37.728a1 1 0 0 1 -.707-1.707l2.829-2.829a1 1 0 0 1 1.414 1.414l-2.829 2.829a1 1 0 0 1 -.707.293z"/><path d="m28.9 15.1a1 1 0 0 1 -.707-1.707l2.829-2.829a1 1 0 1 1 1.414 1.414l-2.829 2.829a1 1 0 0 1 -.707.293z"/></g><circle cx="19" cy="24" fill="#ffb145" r="11"/><path d="m21 31a10.964 10.964 0 0 1 -10.622-13.818 10.993 10.993 0 1 0 19.244 9.636 10.974 10.974 0 0 1 -8.622 4.182z" fill="#fca124"/><path d="m51.491 34.894a16.064 16.064 0 0 0 -14.384-8.894c-7.687 0-12.523 4.821-14.107 12a10 10 0 0 0 -10 10c0 6 5.357 10 12.5 10h25.893a11.553 11.553 0 1 0 .1-23.106z" fill="#83d9f2"/><path d="m45 55a8.8 8.8 0 0 1 -.52 3h-18.98c-6.05 0-10.82-2.87-12.14-7.41a3.166 3.166 0 0 1 -.12-.44c-.04-.17-.07-.34-.1-.52a5.969 5.969 0 0 1 -.09-.61c-.03-.33-.05-.67-.05-1.02a10 10 0 0 1 19.89-1.43 8.9 8.9 0 0 1 3.11-.57 9 9 0 0 1 9 9z" fill="#a4eaff"/><path d="m47.977 53.046a9.489 9.489 0 0 0 -11.431-8.846 12.5 12.5 0 0 0 -12.046-9.2c-.2 0-.4.021-.595.03a19.913 19.913 0 0 0 -.905 2.97 9.993 9.993 0 0 1 9.769 7.936c.044.21.09.419.121.634a8.9 8.9 0 0 1 3.11-.57 9.1 9.1 0 0 1 .909.046 9 9 0 0 1 8.091 8.954 8.8 8.8 0 0 1 -.52 3h6.913a11.584 11.584 0 0 0 11.462-9.816c-5.772 7.551-11.52 6.539-14.878 4.862z" fill="#69cae6"/></g></svg>