<svg id="Layer_1" enable-background="new 0 0 64 64" height="512" viewBox="0 0 64 64" width="512" xmlns="http://www.w3.org/2000/svg"><g><g><path d="m32 57c-9.747 0-18.665-5.725-22.719-14.584l1.818-.832c3.73 8.149 11.933 13.416 20.901 13.416s17.171-5.267 20.9-13.416l1.818.832c-4.053 8.859-12.971 14.584-22.718 14.584z"/></g><g><path d="m52.9 22.416c-3.729-8.149-11.932-13.416-20.9-13.416s-17.171 5.267-20.9 13.416l-1.818-.832c4.053-8.859 12.971-14.584 22.718-14.584s18.665 5.725 22.719 14.584z"/></g><g><g><path d="m31 1h2v7h-2z"/></g><g><path d="m29 0h6v2h-6z"/></g></g><g><g><path d="m31 56h2v7h-2z"/></g><g><path d="m29 62h6v2h-6z"/></g></g><g><g><path d="m39.024 5.593h7.001v2h-7.001z" transform="matrix(.383 -.924 .924 .383 20.154 43.354)"/></g><g><path d="m42.863.36h2v6h-2z" transform="matrix(.383 -.924 .924 .383 23.974 42.599)"/></g></g><g><g><path d="m17.976 56.407h7.001v2h-7.001z" transform="matrix(.383 -.924 .924 .383 -39.779 55.271)"/></g><g><path d="m19.137 57.64h2v6h-2z" transform="matrix(.383 -.924 .924 .383 -43.594 56.039)"/></g></g><g><g><g><path d="m47.946 11.555h6.999v2h-6.999z" transform="matrix(.707 -.707 .707 .707 6.191 40.055)"/></g><g><path d="m52.921 7.079h2v6.001h-2z" transform="matrix(.707 -.707 .707 .707 8.666 41.08)"/></g></g><g><g><path d="m9.055 50.445h6.999v2h-6.999z" transform="matrix(.707 -.707 .707 .707 -32.7 23.946)"/></g><g><path d="m9.08 50.92h2v6.001h-2z" transform="matrix(.707 -.707 .707 .707 -35.175 22.92)"/></g></g><g><g><path d="m50.445 47.946h2v6.999h-2z" transform="matrix(.707 -.707 .707 .707 -21.309 51.445)"/></g><g><path d="m50.92 52.921h6.001v2h-6.001z" transform="matrix(.707 -.707 .707 .707 -22.335 53.92)"/></g></g><g><g><path d="m11.555 9.055h2v6.999h-2z" transform="matrix(.707 -.707 .707 .707 -5.2 12.555)"/></g><g><path d="m7.079 9.08h6.001v2h-6.001z" transform="matrix(.707 -.707 .707 .707 -4.175 10.08)"/></g></g></g><g><g><path d="m41.524 53.906h2v7.001h-2z" transform="matrix(.924 -.383 .383 .924 -18.73 20.64)"/></g><g><path d="m40.863 59.64h6v2h-6z" transform="matrix(.924 -.383 .383 .924 -19.873 21.411)"/></g></g><g><g><path d="m20.476 3.093h2v7.001h-2z" transform="matrix(.924 -.383 .383 .924 -.889 8.719)"/></g><g><path d="m17.137 2.36h6v2h-6z" transform="matrix(.924 -.383 .383 .924 .248 7.965)"/></g></g><g><path d="m59 43h-54c-2.757 0-5-2.243-5-5v-12c0-2.757 2.243-5 5-5h54c2.757 0 5 2.243 5 5v12c0 2.757-2.243 5-5 5zm-54-20c-1.654 0-3 1.346-3 3v12c0 1.654 1.346 3 3 3h54c1.654 0 3-1.346 3-3v-12c0-1.654-1.346-3-3-3z"/></g><g><path d="m9 37c-2.757 0-5-2.243-5-5s2.243-5 5-5c.872 0 1.737.233 2.5.674l-1 1.732c-.467-.269-.971-.406-1.5-.406-1.654 0-3 1.346-3 3s1.346 3 3 3c.527 0 1.032-.137 1.501-.406l.998 1.732c-.765.441-1.629.674-2.499.674z"/></g><g><path d="m25.999 37.001-4.999-9.032 1.75-.969 3.249 5.87 3.249-5.87 1.75.969z"/></g><g><path d="m32 27h2v10h-2z"/></g><g><path d="m16.5 37c-2.481 0-4.5-2.243-4.5-5s2.019-5 4.5-5 4.5 2.243 4.5 5-2.019 5-4.5 5zm0-8c-1.379 0-2.5 1.346-2.5 3s1.121 3 2.5 3 2.5-1.346 2.5-3-1.121-3-2.5-3z"/></g><g><path d="m39 37h-3v-10h3c2.757 0 5 2.243 5 5s-2.243 5-5 5zm-1-2h1c1.654 0 3-1.346 3-3s-1.346-3-3-3h-1z"/></g><g><path d="m49 27h2v10h-2z"/></g><g><path d="m56.5 34c-1.93 0-3.5-1.57-3.5-3.5s1.57-3.5 3.5-3.5 3.5 1.57 3.5 3.5-1.57 3.5-3.5 3.5zm0-5c-.827 0-1.5.673-1.5 1.5s.673 1.5 1.5 1.5 1.5-.673 1.5-1.5-.673-1.5-1.5-1.5z"/></g><g><path d="m56.257 37h-2.257v-2h2.257c.961 0 1.743-.782 1.743-1.743v-2.757h2v2.757c0 2.064-1.679 3.743-3.743 3.743z"/></g><g><path d="m45 31h3v2h-3z"/></g></g></svg>